<?xml version="1.0" encoding="UTF-8" standalone="no"?>
<!-- Created with Inkscape (http://www.inkscape.org/) -->

<svg
   xmlns:dc="http://purl.org/dc/elements/1.1/"
   xmlns:cc="http://creativecommons.org/ns#"
   xmlns:rdf="http://www.w3.org/1999/02/22-rdf-syntax-ns#"
   xmlns:svg="http://www.w3.org/2000/svg"
   xmlns="http://www.w3.org/2000/svg"
   xmlns:sodipodi="http://sodipodi.sourceforge.net/DTD/sodipodi-0.dtd"
   xmlns:inkscape="http://www.inkscape.org/namespaces/inkscape"
   width="206.17598mm"
   height="97.873398mm"
   viewBox="0 0 206.17598 97.873398"
   version="1.1"
   id="svg8"
   sodipodi:docname="lg.svg"
   inkscape:version="0.92.1 r15371"
   inkscape:export-filename="K:\Cursos\NextU\DesarrolloWeb\CV\img\bitmap.png"
   inkscape:export-xdpi="96"
   inkscape:export-ydpi="96">
  <defs
     id="defs2">
    <inkscape:path-effect
       is_visible="true"
       id="path-effect3914"
       effect="spiro" />
    <inkscape:path-effect
       effect="spiro"
       id="path-effect3910"
       is_visible="true" />
    <inkscape:path-effect
       effect="spiro"
       id="path-effect3694"
       is_visible="true" />
    <inkscape:path-effect
       effect="spiro"
       id="path-effect3690"
       is_visible="true" />
    <inkscape:path-effect
       effect="spiro"
       id="path-effect3910-5"
       is_visible="true" />
    <inkscape:path-effect
       is_visible="true"
       id="path-effect3914-1"
       effect="spiro" />
  </defs>
  <sodipodi:namedview
     id="base"
     pagecolor="#ffffff"
     bordercolor="#666666"
     borderopacity="1.0"
     inkscape:pageopacity="0.0"
     inkscape:pageshadow="2"
     inkscape:zoom="0.65764502"
     inkscape:cx="193.14689"
     inkscape:cy="212.37966"
     inkscape:document-units="mm"
     inkscape:current-layer="layer1"
     showgrid="true"
     inkscape:object-paths="true"
     inkscape:snap-to-guides="true"
     inkscape:measure-start="601.555,515.484"
     inkscape:measure-end="0,0"
     inkscape:window-width="1366"
     inkscape:window-height="705"
     inkscape:window-x="1352"
     inkscape:window-y="-8"
     inkscape:window-maximized="1"
     inkscape:snap-others="true"
     inkscape:object-nodes="true"
     inkscape:snap-nodes="true"
     inkscape:snap-bbox="true"
     inkscape:bbox-paths="true"
     inkscape:bbox-nodes="true"
     inkscape:snap-bbox-edge-midpoints="true"
     inkscape:snap-bbox-midpoints="true"
     inkscape:snap-intersection-paths="true"
     inkscape:snap-smooth-nodes="true"
     inkscape:snap-midpoints="true"
     inkscape:snap-object-midpoints="true"
     inkscape:snap-center="true"
     inkscape:snap-text-baseline="true"
     inkscape:snap-page="true"
     inkscape:snap-grids="false"
     showguides="true">
    <inkscape:grid
       type="xygrid"
       id="grid39"
       originx="-1.7416649"
       originy="-105.91443" />
  </sodipodi:namedview>
  <metadata
     id="metadata5">
    <rdf:RDF>
      <cc:Work
         rdf:about="">
        <dc:format>image/svg+xml</dc:format>
        <dc:type
           rdf:resource="http://purl.org/dc/dcmitype/StillImage" />
        <dc:title />
      </cc:Work>
    </rdf:RDF>
  </metadata>
  <g
     inkscape:groupmode="layer"
     id="layer3"
     inkscape:label="Capa 3"
     style="display:inline"
     transform="translate(-1.7416649,-93.212176)">
    <rect
       style="display:inline;fill:#ffffff;stroke-width:0.69766003;image-rendering:auto"
       id="rect134"
       width="209.74545"
       height="101.30908"
       x="0.25454876"
       y="91.327278" />
  </g>
  <g
     inkscape:groupmode="layer"
     id="layer2"
     inkscape:label="Capa 2"
     style="display:inline"
     transform="translate(-1.7416649,-93.212176)">
    <text
       xml:space="preserve"
       style="font-style:normal;font-weight:normal;font-size:14.14117146px;line-height:1.25;font-family:sans-serif;letter-spacing:0px;word-spacing:0px;display:inline;fill:#000000;fill-opacity:1;stroke:none;stroke-width:0.3535293"
       x="29.609461"
       y="151.55502"
       id="text138"
       transform="scale(0.98929121,1.0108247)"><tspan
         sodipodi:role="line"
         id="tspan136"
         x="29.609461"
         y="151.55502"
         style="font-style:normal;font-variant:normal;font-weight:normal;font-stretch:normal;font-size:33.93881226px;font-family:'Segoe Script';-inkscape-font-specification:'Segoe Script';fill:#000000;stroke-width:0.3535293">C. Ch.</tspan></text>
  </g>
  <g
     inkscape:label="Capa 1"
     inkscape:groupmode="layer"
     id="layer1"
     style="display:inline"
     transform="translate(-1.7416649,-93.212176)">
    <flowRoot
       xml:space="preserve"
       id="flowRoot3916"
       style="font-style:italic;font-variant:normal;font-weight:normal;font-stretch:normal;font-size:40px;line-height:1.25;font-family:sans-serif;-inkscape-font-specification:'sans-serif Italic';letter-spacing:0px;word-spacing:0px;fill:#000000;fill-opacity:1;stroke:none"><flowRegion
         id="flowRegion3918"
         style="font-style:italic;font-variant:normal;font-weight:normal;font-stretch:normal;font-family:sans-serif;-inkscape-font-specification:'sans-serif Italic'"><rect
           id="rect3920"
           width="343.6539"
           height="84.852814"
           x="223.44574"
           y="719.46881"
           style="font-style:italic;font-variant:normal;font-weight:normal;font-stretch:normal;font-family:sans-serif;-inkscape-font-specification:'sans-serif Italic'" /></flowRegion><flowPara
         id="flowPara3922" /></flowRoot>    <g
       id="g4015"
       transform="matrix(1.5325304,0,0,1.6207155,-54.727423,-88.494452)"
       style="stroke-width:0.63063312"
       inkscape:export-xdpi="96"
       inkscape:export-ydpi="96">
      <path
         transform="scale(0.26458333)"
         id="path3852"
         d="m 609.08789,424.06445 c -3.52478,0.0875 -7.04988,0.97751 -10.2168,2.53907 -5.63006,2.7761 -10.14856,7.54876 -13.15625,13.05859 -5.67039,10.38769 -6.01181,22.73282 -8.57226,34.28711 -0.038,0.17151 -0.0765,0.3429 -0.11555,0.51416 -2.24905,9.86974 -6.18614,19.32607 -11.31219,28.05615 -11.4017,19.41803 -28.68726,35.14861 -48.57226,45.71485 -30.41795,16.16297 -65.65989,20.16401 -100,22.85742 -61.76979,4.84481 -123.85614,6.39005 -185.71485,2.85742 -9.88163,-0.56432 -19.90602,-1.23316 -29.87109,-1.33008 103.25314,7.78098 207.34459,4.39616 309.87109,-10.09961 5.73723,-0.81116 11.47575,-1.65804 17.14454,-2.85742 22.417,-4.74291 43.64209,-15.09803 61.07421,-29.96875 17.43213,-14.87072 31.02347,-34.23668 38.92579,-55.74414 3.19376,-8.69237 5.48959,-18.01117 4.16015,-27.17578 -0.66472,-4.58231 -2.25444,-9.06334 -4.89453,-12.86719 -2.64009,-3.80385 -6.35917,-6.90534 -10.69531,-8.5293 -2.57187,-0.9632 -5.3132,-1.38058 -8.05469,-1.3125 z"
         style="fill:#1a1a1a;stroke:#000000;stroke-width:0.63063306px;stroke-linecap:butt;stroke-linejoin:miter;stroke-opacity:1"
         inkscape:connector-curvature="0"
         inkscape:export-xdpi="96"
         inkscape:export-ydpi="96"
         sodipodi:nodetypes="cssssscsscssscsscc" />
      <path
         transform="scale(0.26458333)"
         id="path3850"
         d="m 201.55664,572.61914 c -6.23628,-0.46995 -12.46959,-0.97588 -18.69922,-1.52734 l -11.42969,2.85742 c 0.39662,0.23641 0.79862,0.46307 1.20313,0.68555 9.45495,-1.6553 19.16092,-2.1106 28.92578,-2.01563 z"
         style="fill:#000000;stroke:#000000;stroke-width:0.63063306px;stroke-linecap:butt;stroke-linejoin:miter;stroke-opacity:1"
         inkscape:connector-curvature="0"
         inkscape:export-xdpi="96"
         inkscape:export-ydpi="96" />
      <path
         transform="scale(0.26458333)"
         d="m 214.5918,592.2168 c -0.0224,0.0427 -0.004,0.11146 0.11328,0.24218 0.0311,0.0346 0.0632,0.0683 0.0937,0.10352 0.03,0.0153 0.0179,0.009 0.0449,0.0234 -0.0541,-0.0652 -0.10141,-0.14769 -0.15039,-0.28711 -0.0241,-0.0234 -0.047,-0.0481 -0.0703,-0.0723 -0.007,-0.003 -0.0125,-8e-4 -0.0195,-0.004 -0.007,-0.003 -0.005,-0.003 -0.0117,-0.006 z"
         style="fill:#000000;stroke:#000000;stroke-width:0.63063306px;stroke-linecap:butt;stroke-linejoin:miter;stroke-opacity:1"
         id="path3846"
         inkscape:connector-curvature="0"
         inkscape:export-xdpi="96"
         inkscape:export-ydpi="96" />
      <path
         transform="scale(0.26458333)"
         id="path3844"
         d="m 214.81641,592.58203 c 0.0157,0.0175 0.03,0.0364 0.0469,0.0527 0.0338,0.0154 0.0125,0.004 0.0684,0.0312 -0.0286,-0.0209 -0.0618,-0.0494 -0.0859,-0.0781 -0.0115,1.9e-4 -0.0166,-0.005 -0.0293,-0.006 z"
         style="fill:#000000;stroke:#000000;stroke-width:0.63063306px;stroke-linecap:butt;stroke-linejoin:miter;stroke-opacity:1"
         inkscape:connector-curvature="0"
         inkscape:export-xdpi="96"
         inkscape:export-ydpi="96" />
      <ellipse
         ry="10.772321"
         rx="10.866816"
         cy="161.73175"
         cx="47.813988"
         id="path3885"
         style="fill:#241c1c;stroke-width:0.1672221"
         inkscape:export-xdpi="96"
         inkscape:export-ydpi="96" />
      <path
         inkscape:original-d="m 148.15402,149.53435 c -0.23881,0.0185 2.59879,-0.68969 3.89776,-1.03374 1.29896,-0.34416 1.23033,-0.72005 1.84507,-1.07943 0.61472,-0.35937 3.05141,-2.57804 4.57666,-3.86642 1.52526,-1.28839 1.25716,-2.17197 1.88529,-3.25731 0.62812,-1.08535 2.95719,-2.76102 4.43532,-4.14089 1.47815,-1.37985 4.05565,0.47502 6.08299,0.71317 2.02737,0.23815 -0.85485,3.39233 -1.28275,5.08913 -0.42788,1.69682 -3.80231,2.68199 -5.70392,4.0236 -1.90161,1.34163 -5.13583,1.81697 -7.70423,2.72609 -2.56837,0.90912 -2.41786,0.43732 -3.62725,0.65663 -1.20939,0.21933 -2.32209,0.0418 -3.48358,0.0633"
         inkscape:path-effect="#path-effect3910-5"
         inkscape:connector-curvature="0"
         id="path3908"
         d="m 148.15402,149.53435 c 1.3505,-0.0825 2.68389,-0.43611 3.89776,-1.03374 0.63961,-0.3149 1.2443,-0.69557 1.84507,-1.07943 1.69364,-1.08215 3.40607,-2.23267 4.57666,-3.86642 0.73111,-1.02038 1.2221,-2.19154 1.88529,-3.25731 1.08107,-1.73732 2.62721,-3.1829 4.43532,-4.14089 0.99995,-0.5298 2.10994,-0.91722 3.24048,-0.86754 0.56527,0.0248 1.12888,0.16109 1.62856,0.42654 0.49968,0.26545 0.93338,0.66282 1.21395,1.15417 0.23218,0.40661 0.35662,0.87114 0.3817,1.33869 0.0251,0.46756 -0.0476,0.93803 -0.19069,1.38386 -0.2862,0.89165 -0.84524,1.67237 -1.47376,2.36658 -1.57135,1.73558 -3.59789,3.00087 -5.70392,4.0236 -2.45516,1.19228 -5.05148,2.08402 -7.70423,2.72609 -1.19514,0.28927 -2.40429,0.52857 -3.62725,0.65663 -1.1565,0.1211 -2.32344,0.14231 -3.48358,0.0633"
         style="fill:#4d4d4d;stroke:#000000;stroke-width:0.23260176px;stroke-linecap:butt;stroke-linejoin:miter;stroke-opacity:1"
         inkscape:export-xdpi="96"
         inkscape:export-ydpi="96" />
      <path
         style="fill:#999999;stroke:#000000;stroke-width:0.16874288px;stroke-linecap:butt;stroke-linejoin:miter;stroke-opacity:1"
         d="m 150.31948,153.78364 c 0.78475,0.54275 1.69068,0.90922 2.63207,1.06474 0.47763,0.0789 0.96235,0.10408 1.44601,0.12502 1.34905,0.0584 2.74783,0.0762 3.98994,-0.45345 0.7795,-0.33236 1.45636,-0.86446 2.20799,-1.2558 1.21977,-0.63508 2.63859,-0.8849 4.00025,-0.69239 0.83145,0.11755 1.65698,0.40677 2.29655,0.9509 0.31979,0.27206 0.58928,0.60586 0.77143,0.98415 0.18215,0.37829 0.2754,0.80145 0.25095,1.2206 -0.0378,0.64767 -0.35705,1.26094 -0.81468,1.72081 -0.45762,0.45986 -1.04578,0.77485 -1.66171,0.97865 -1.50497,0.49798 -3.14583,0.35099 -4.70308,0.0545 -1.8648,-0.35504 -3.68985,-0.91668 -5.43404,-1.66591 -0.80585,-0.34616 -1.59553,-0.7328 -2.34588,-1.18688 -0.72847,-0.44084 -1.41875,-0.94474 -2.06061,-1.50422"
         id="path3912"
         inkscape:connector-curvature="0"
         inkscape:path-effect="#path-effect3914-1"
         inkscape:original-d="m 150.31948,153.78364 c -0.14607,-0.094 1.75507,0.70955 2.63207,1.06474 0.87711,0.35476 0.96432,0.0832 1.44601,0.12502 0.48169,0.0418 2.66027,-0.30242 3.98994,-0.45345 1.32966,-0.15098 1.47231,-0.83734 2.20799,-1.2558 0.73568,-0.41847 2.66716,-0.46174 4.00025,-0.69239 1.3331,-0.23062 2.21291,2.10368 3.31893,3.15565 1.10599,1.05202 -1.65061,1.79951 -2.47639,2.69946 -0.8258,0.89998 -3.13508,0.0362 -4.70308,0.0545 -1.56803,0.0183 -3.62236,-1.11074 -5.43404,-1.66591 -1.81166,-0.55515 -1.56361,-0.79132 -2.34588,-1.18688 -0.78227,-0.39555 -1.37342,-1.00296 -2.06061,-1.50422"
         inkscape:export-xdpi="96"
         inkscape:export-ydpi="96"
         sodipodi:nodetypes="ccccccccsccc" />
    </g>
    <ellipse
       style="fill:#000000;stroke-width:0.27691624"
       id="path175"
       cx="18.414392"
       cy="173.50533"
       rx="16.672728"
       ry="17.436363" />
  </g>
</svg>
